mtllib material.mtl
usemtl material_0
v -0.01050000 -0.05219500 0.00250000
v -0.01050000 -0.05219500 0.00250000
v -0.01050000 -0.05219500 0.00250000
v -0.01050000 -0.05219500 0.00250000
v -0.01050000 -0.05219500 0.00250000
v -0.01050000 -0.05219500 0.00250000
v -0.01050000 -0.05219500 0.00250000
v -0.01050000 -0.05219500 0.00250000
v -0.01050000 -0.05219500 0.00250000
v -0.01050000 -0.05219500 0.00250000
v -0.01050000 -0.05219500 0.00250000
v -0.01050000 -0.05219500 0.00250000
v 0.01050000 -0.05219500 0.00250000
v 0.01050000 -0.05219500 0.00250000
v 0.01050000 -0.05219500 0.00250000
v 0.01050000 -0.05219500 0.00250000
v 0.01050000 -0.05219500 0.00250000
v 0.01050000 -0.05219500 0.00250000
v 0.01050000 -0.05219500 0.00250000
v 0.01050000 -0.05219500 0.00250000
v 0.01050000 -0.05219500 0.00250000
v 0.01050000 -0.05219500 0.00250000
v 0.01050000 -0.05219500 0.00250000
v 0.01050000 -0.05219500 0.00250000
v -0.00909300 -0.05744500 0.00250000
v -0.00525000 -0.06128800 0.00250000
v 0.00000000 -0.06269500 0.00250000
v 0.00525000 -0.06128800 0.00250000
v 0.00909300 -0.05744500 0.00250000
v 0.00909300 -0.04694500 0.00250000
v 0.00909300 -0.04694500 0.00250000
v 0.00525000 -0.04310100 0.00250000
v 0.00525000 -0.04310100 0.00250000
v 0.00000000 -0.04169500 0.00250000
v 0.00000000 -0.04169500 0.00250000
v -0.00525000 -0.04310100 0.00250000
v -0.00525000 -0.04310100 0.00250000
v -0.00909300 -0.04694500 0.00250000
v -0.00909300 -0.04694500 0.00250000
v -0.00909300 -0.04764800 0.00512500
v -0.00525000 -0.04432000 0.00704700
v 0.00000000 -0.04310100 0.00775000
v 0.00525000 -0.04432000 0.00704700
v 0.00909300 -0.04764800 0.00512500
v 0.00909300 -0.04764800 -0.00012500
v 0.00525000 -0.04432000 -0.00204700
v 0.00000000 -0.04310100 -0.00275000
v -0.00525000 -0.04432000 -0.00204700
v -0.00909300 -0.04764800 -0.00012500
v -0.00909300 -0.05674100 -0.00012500
v -0.00525000 -0.06007000 -0.00204700
v 0.00000000 -0.06128800 -0.00275000
v 0.00525000 -0.06007000 -0.00204700
v 0.00909300 -0.05674100 -0.00012500
v 0.00909300 -0.05674100 0.00512500
v 0.00525000 -0.06007000 0.00704700
v 0.00000000 -0.06128800 0.00775000
v -0.00525000 -0.06007000 0.00704700
v -0.00909300 -0.05674100 0.00512500
v 0.00909300 -0.05482000 0.00704700
v 0.00525000 -0.05674100 0.01037500
v 0.00000000 -0.05744500 0.01159300
v -0.00525000 -0.05674100 0.01037500
v -0.00909300 -0.05482000 0.00704700
v 0.00909300 -0.05219500 0.00775000
v 0.00525000 -0.05219500 0.01159300
v 0.00000000 -0.05219500 0.01300000
v -0.00525000 -0.05219500 0.01159300
v -0.00909300 -0.05219500 0.00775000
v 0.00909300 -0.04957000 0.00704700
v 0.00525000 -0.04764800 0.01037500
v 0.00000000 -0.04694500 0.01159300
v -0.00525000 -0.04764800 0.01037500
v -0.00909300 -0.04957000 0.00704700
v -0.00909300 -0.05482000 -0.00204700
v -0.00525000 -0.05674100 -0.00537500
v 0.00000000 -0.05744500 -0.00659300
v 0.00525000 -0.05674100 -0.00537500
v 0.00909300 -0.05482000 -0.00204700
v -0.00909300 -0.05219500 -0.00275000
v -0.00525000 -0.05219500 -0.00659300
v 0.00000000 -0.05219500 -0.00800000
v 0.00525000 -0.05219500 -0.00659300
v 0.00909300 -0.05219500 -0.00275000
v -0.00909300 -0.04957000 -0.00204700
v -0.00525000 -0.04764800 -0.00537500
v 0.00000000 -0.04694500 -0.00659300
v 0.00525000 -0.04764800 -0.00537500
v 0.00909300 -0.04957000 -0.00204700
vn -100.00000000 0.00000000 0.00000000
vn -100.00000000 0.00000000 0.00000000
vn -100.00000000 0.00000000 0.00000000
vn -100.00000000 0.00000000 0.00000000
vn -100.00000000 0.00000000 0.00000000
vn -100.00000000 0.00000000 0.00000000
vn -100.00000000 0.00000000 0.00000000
vn -100.00000000 0.00000000 0.00000000
vn -100.00000000 0.00000000 0.00000000
vn -100.00000000 0.00000000 0.00000000
vn -100.00000000 0.00000000 0.00000000
vn -100.00000000 0.00000000 0.00000000
vn 100.00000000 0.00000000 0.00000000
vn 100.00000000 0.00000000 0.00000000
vn 100.00000000 0.00000000 0.00000000
vn 100.00000000 0.00000000 0.00000000
vn 100.00000000 0.00000000 0.00000000
vn 100.00000000 0.00000000 0.00000000
vn 100.00000000 0.00000000 0.00000000
vn 100.00000000 0.00000000 0.00000000
vn 100.00000000 0.00000000 0.00000000
vn 100.00000000 0.00000000 0.00000000
vn 100.00000000 0.00000000 0.00000000
vn 100.00000000 0.00000000 0.00000000
vn -86.60254000 -50.00000000 0.00000000
vn -50.00000000 -86.60254000 0.00000000
vn 0.00000000 -100.00000000 0.00000000
vn 50.00000000 -86.60254000 0.00000000
vn 86.60254000 -50.00000000 0.00000000
vn 86.60254000 50.00000000 0.00000000
vn 86.60254000 50.00000000 0.00000000
vn 50.00000000 86.60254000 0.00000000
vn 50.00000000 86.60254000 0.00000000
vn 0.00000000 100.00000000 0.00000000
vn 0.00000000 100.00000000 0.00000000
vn -50.00000000 86.60254000 0.00000000
vn -50.00000000 86.60254000 0.00000000
vn -86.60254000 50.00000000 -0.00000000
vn -86.60254000 50.00000000 -0.00000000
vn -86.60254000 43.30127000 25.00000000
vn -50.00000000 75.00000000 43.30127000
vn 0.00000000 86.60254000 50.00000000
vn 50.00000000 75.00000000 43.30127000
vn 86.60254000 43.30127000 25.00000000
vn 86.60254000 43.30127000 -25.00000000
vn 50.00000000 75.00000000 -43.30127000
vn 0.00000000 86.60254000 -50.00000000
vn -50.00000000 75.00000000 -43.30127000
vn -86.60254000 43.30127000 -25.00000000
vn -86.60254000 -43.30127000 -25.00000000
vn -50.00000000 -75.00000000 -43.30127000
vn 0.00000000 -86.60254000 -50.00000000
vn 50.00000000 -75.00000000 -43.30127000
vn 86.60254000 -43.30127000 -25.00000000
vn 86.60254000 -43.30127000 25.00000000
vn 50.00000000 -75.00000000 43.30127000
vn 0.00000000 -86.60254000 50.00000000
vn -50.00000000 -75.00000000 43.30127000
vn -86.60254000 -43.30127000 25.00000000
vn 86.60254000 -25.00000000 43.30127000
vn 50.00000000 -43.30127000 75.00000000
vn 0.00000000 -50.00000000 86.60254000
vn -50.00000000 -43.30127000 75.00000000
vn -86.60254000 -25.00000000 43.30127000
vn 86.60254000 0.00000000 50.00000000
vn 50.00000000 0.00000000 86.60254000
vn 0.00000000 0.00000000 100.00000000
vn -50.00000000 0.00000000 86.60254000
vn -86.60254000 0.00000000 50.00000000
vn 86.60254000 25.00000000 43.30127000
vn 50.00000000 43.30127000 75.00000000
vn 0.00000000 50.00000000 86.60254000
vn -50.00000000 43.30127000 75.00000000
vn -86.60254000 25.00000000 43.30127000
vn -86.60254000 -25.00000000 -43.30127000
vn -50.00000000 -43.30127000 -75.00000000
vn 0.00000000 -50.00000000 -86.60254000
vn 50.00000000 -43.30127000 -75.00000000
vn 86.60254000 -25.00000000 -43.30127000
vn -86.60254000 0.00000000 -50.00000000
vn -50.00000000 0.00000000 -86.60254000
vn 0.00000000 0.00000000 -100.00000000
vn 50.00000000 0.00000000 -86.60254000
vn 86.60254000 0.00000000 -50.00000000
vn -86.60254000 25.00000000 -43.30127000
vn -50.00000000 43.30127000 -75.00000000
vn 0.00000000 50.00000000 -86.60254000
vn 50.00000000 43.30127000 -75.00000000
vn 86.60254000 25.00000000 -43.30127000
vt 1.64933600 -0.54977900
vt 1.64933600 0.54977900
vt 1.64933600 1.09955700
vt 1.64933600 1.64933600
vt 1.64933600 -3.29867200
vt 1.64933600 0.00000000
vt 1.64933600 2.74889400
vt 1.64933600 2.19911500
vt 1.64933600 -2.74889400
vt 1.64933600 -2.19911500
vt 1.64933600 -1.64933600
vt 1.64933600 -1.09955700
vt -1.64933600 -0.54977900
vt -1.64933600 -1.09955700
vt -1.64933600 -1.64933600
vt -1.64933600 -2.19911500
vt -1.64933600 1.64933600
vt -1.64933600 2.19911500
vt -1.64933600 -2.74889400
vt -1.64933600 2.74889400
vt -1.64933600 0.00000000
vt -1.64933600 0.54977900
vt -1.64933600 1.09955700
vt -1.64933600 3.29867200
vt 1.09955700 0.00000000
vt 0.54977900 0.00000000
vt 0.00000000 0.00000000
vt -0.54977900 0.00000000
vt -1.09955700 0.00000000
vt -1.09955700 -3.29867200
vt -1.09955700 3.29867200
vt -0.54977900 3.29867200
vt -0.54977900 -3.29867200
vt 0.00000000 3.29867200
vt 0.00000000 -3.29867200
vt 0.54977900 3.29867200
vt 0.54977900 -3.29867200
vt 1.09955700 3.29867200
vt 1.09955700 -3.29867200
vt 1.09955700 -2.74889400
vt 0.54977900 -2.74889400
vt 0.00000000 -2.74889400
vt -0.54977900 -2.74889400
vt -1.09955700 -2.74889400
vt -1.09955700 2.74889400
vt -0.54977900 2.74889400
vt 0.00000000 2.74889400
vt 0.54977900 2.74889400
vt 1.09955700 2.74889400
vt 1.09955700 0.54977900
vt 0.54977900 0.54977900
vt 0.00000000 0.54977900
vt -0.54977900 0.54977900
vt -1.09955700 0.54977900
vt -1.09955700 -0.54977900
vt -0.54977900 -0.54977900
vt 0.00000000 -0.54977900
vt 0.54977900 -0.54977900
vt 1.09955700 -0.54977900
vt -1.09955700 -1.09955700
vt -0.54977900 -1.09955700
vt 0.00000000 -1.09955700
vt 0.54977900 -1.09955700
vt 1.09955700 -1.09955700
vt -1.09955700 -1.64933600
vt -0.54977900 -1.64933600
vt 0.00000000 -1.64933600
vt 0.54977900 -1.64933600
vt 1.09955700 -1.64933600
vt -1.09955700 -2.19911500
vt -0.54977900 -2.19911500
vt 0.00000000 -2.19911500
vt 0.54977900 -2.19911500
vt 1.09955700 -2.19911500
vt 1.09955700 1.09955700
vt 0.54977900 1.09955700
vt 0.00000000 1.09955700
vt -0.54977900 1.09955700
vt -1.09955700 1.09955700
vt 1.09955700 1.64933600
vt 0.54977900 1.64933600
vt 0.00000000 1.64933600
vt -0.54977900 1.64933600
vt -1.09955700 1.64933600
vt 1.09955700 2.19911500
vt 0.54977900 2.19911500
vt 0.00000000 2.19911500
vt -0.54977900 2.19911500
vt -1.09955700 2.19911500
f 55/55/55 13/13/13 60/60/60
f 60/60/60 14/14/14 65/65/65
f 65/65/65 15/15/15 70/70/70
f 70/70/70 16/16/16 44/44/44
f 44/44/44 19/19/19 30/30/30
f 40/40/40 9/9/9 74/74/74
f 74/74/74 10/10/10 69/69/69
f 69/69/69 11/11/11 64/64/64
f 64/64/64 12/12/12 59/59/59
f 59/59/59 1/1/1 25/25/25
f 50/50/50 2/2/2 75/75/75
f 75/75/75 3/3/3 80/80/80
f 80/80/80 4/4/4 85/85/85
f 85/85/85 8/8/8 49/49/49
f 49/49/49 7/7/7 38/38/38
f 45/45/45 20/20/20 89/89/89
f 89/89/89 18/18/18 84/84/84
f 84/84/84 17/17/17 79/79/79
f 79/79/79 23/23/23 54/54/54
f 54/54/54 22/22/22 29/29/29
f 25/25/25 26/26/26 59/59/59
f 59/59/59 26/26/26 58/58/58
f 59/59/59 58/58/58 64/64/64
f 64/64/64 58/58/58 63/63/63
f 64/64/64 63/63/63 69/69/69
f 69/69/69 63/63/63 68/68/68
f 69/69/69 68/68/68 74/74/74
f 74/74/74 68/68/68 73/73/73
f 74/74/74 73/73/73 40/40/40
f 40/40/40 73/73/73 41/41/41
f 40/40/40 41/41/41 39/39/39
f 39/39/39 41/41/41 37/37/37
f 38/38/38 36/36/36 49/49/49
f 49/49/49 36/36/36 48/48/48
f 49/49/49 48/48/48 85/85/85
f 85/85/85 48/48/48 86/86/86
f 85/85/85 86/86/86 80/80/80
f 80/80/80 86/86/86 81/81/81
f 80/80/80 81/81/81 75/75/75
f 75/75/75 81/81/81 76/76/76
f 75/75/75 76/76/76 50/50/50
f 50/50/50 76/76/76 51/51/51
f 50/50/50 51/51/51 25/25/25
f 25/25/25 51/51/51 26/26/26
f 25/25/25 6/6/6 50/50/50
f 26/26/26 27/27/27 58/58/58
f 58/58/58 27/27/27 57/57/57
f 58/58/58 57/57/57 63/63/63
f 63/63/63 57/57/57 62/62/62
f 63/63/63 62/62/62 68/68/68
f 68/68/68 62/62/62 67/67/67
f 68/68/68 67/67/67 73/73/73
f 73/73/73 67/67/67 72/72/72
f 73/73/73 72/72/72 41/41/41
f 41/41/41 72/72/72 42/42/42
f 41/41/41 42/42/42 37/37/37
f 37/37/37 42/42/42 35/35/35
f 36/36/36 34/34/34 48/48/48
f 48/48/48 34/34/34 47/47/47
f 48/48/48 47/47/47 86/86/86
f 86/86/86 47/47/47 87/87/87
f 86/86/86 87/87/87 81/81/81
f 81/81/81 87/87/87 82/82/82
f 81/81/81 82/82/82 76/76/76
f 76/76/76 82/82/82 77/77/77
f 76/76/76 77/77/77 51/51/51
f 51/51/51 77/77/77 52/52/52
f 51/51/51 52/52/52 26/26/26
f 26/26/26 52/52/52 27/27/27
f 27/27/27 28/28/28 57/57/57
f 57/57/57 28/28/28 56/56/56
f 57/57/57 56/56/56 62/62/62
f 62/62/62 56/56/56 61/61/61
f 62/62/62 61/61/61 67/67/67
f 67/67/67 61/61/61 66/66/66
f 67/67/67 66/66/66 72/72/72
f 72/72/72 66/66/66 71/71/71
f 72/72/72 71/71/71 42/42/42
f 42/42/42 71/71/71 43/43/43
f 42/42/42 43/43/43 35/35/35
f 35/35/35 43/43/43 33/33/33
f 34/34/34 32/32/32 47/47/47
f 47/47/47 32/32/32 46/46/46
f 47/47/47 46/46/46 87/87/87
f 87/87/87 46/46/46 88/88/88
f 87/87/87 88/88/88 82/82/82
f 82/82/82 88/88/88 83/83/83
f 82/82/82 83/83/83 77/77/77
f 77/77/77 83/83/83 78/78/78
f 77/77/77 78/78/78 52/52/52
f 52/52/52 78/78/78 53/53/53
f 52/52/52 53/53/53 27/27/27
f 27/27/27 53/53/53 28/28/28
f 28/28/28 29/29/29 56/56/56
f 56/56/56 29/29/29 55/55/55
f 56/56/56 55/55/55 61/61/61
f 61/61/61 55/55/55 60/60/60
f 61/61/61 60/60/60 66/66/66
f 66/66/66 60/60/60 65/65/65
f 66/66/66 65/65/65 71/71/71
f 71/71/71 65/65/65 70/70/70
f 71/71/71 70/70/70 43/43/43
f 43/43/43 70/70/70 44/44/44
f 43/43/43 44/44/44 33/33/33
f 33/33/33 44/44/44 30/30/30
f 32/32/32 31/31/31 46/46/46
f 46/46/46 31/31/31 45/45/45
f 46/46/46 45/45/45 88/88/88
f 88/88/88 45/45/45 89/89/89
f 88/88/88 89/89/89 83/83/83
f 83/83/83 89/89/89 84/84/84
f 83/83/83 84/84/84 78/78/78
f 78/78/78 84/84/84 79/79/79
f 78/78/78 79/79/79 53/53/53
f 53/53/53 79/79/79 54/54/54
f 53/53/53 54/54/54 28/28/28
f 28/28/28 54/54/54 29/29/29
f 29/29/29 21/21/21 55/55/55
f 31/31/31 24/24/24 45/45/45
f 39/39/39 5/5/5 40/40/40

