mtllib material.mtl
usemtl material_0
v 0.02301300 -0.04305600 0.07037800
v 0.02301300 -0.04305600 0.07037800
v 0.02301300 -0.04305600 0.07037800
v 0.02957000 -0.04305600 0.07163100
v 0.02957000 -0.04305600 0.07163100
v 0.03602100 -0.04305600 0.06991500
v 0.03602100 -0.04305600 0.06991500
v 0.04108900 -0.04305600 0.06556900
v 0.04108900 -0.04305600 0.06556900
v 0.04377000 -0.04305600 0.05945600
v 0.04377000 -0.04305600 0.05945600
v 0.04353200 -0.04305600 0.05278400
v 0.04353200 -0.04305600 0.05278400
v 0.04042400 -0.04305600 0.04687700
v 0.04042400 -0.04305600 0.04687700
v 0.03506000 -0.04305600 0.04290300
v 0.03506000 -0.04305600 0.04290300
v 0.02850300 -0.04305600 0.04165000
v 0.02850300 -0.04305600 0.04165000
v 0.02205100 -0.04305600 0.04336600
v 0.02205100 -0.04305600 0.04336600
v 0.01698400 -0.04305600 0.04771100
v 0.01698400 -0.04305600 0.04771100
v 0.01430300 -0.04305600 0.05382500
v 0.01430300 -0.04305600 0.05382500
v 0.01454100 -0.04305600 0.06049700
v 0.01454100 -0.04305600 0.06049700
v 0.01764900 -0.04305600 0.06640400
v 0.01764900 -0.04305600 0.06640400
v 0.02581400 -0.04305600 0.06399000
v 0.02581400 -0.04305600 0.06399000
v 0.02581400 -0.04305600 0.06399000
v 0.02257100 -0.04305600 0.06139400
v 0.02257100 -0.04305600 0.06139400
v 0.02106000 -0.04305600 0.05752500
v 0.02106000 -0.04305600 0.05752500
v 0.02168700 -0.04305600 0.05341800
v 0.02168700 -0.04305600 0.05341800
v 0.02428200 -0.04305600 0.05017500
v 0.02428200 -0.04305600 0.05017500
v 0.02815200 -0.04305600 0.04866400
v 0.02815200 -0.04305600 0.04866400
v 0.03225900 -0.04305600 0.04929100
v 0.03225900 -0.04305600 0.04929100
v 0.03550200 -0.04305600 0.05188600
v 0.03550200 -0.04305600 0.05188600
v 0.03701300 -0.04305600 0.05575600
v 0.03701300 -0.04305600 0.05575600
v 0.03638600 -0.04305600 0.05986300
v 0.03638600 -0.04305600 0.05986300
v 0.03379000 -0.04305600 0.06310600
v 0.03379000 -0.04305600 0.06310600
v 0.02992100 -0.04305600 0.06461700
v 0.02992100 -0.04305600 0.06461700
v 0.02301300 -0.04805600 0.07037800
v 0.02301300 -0.04805600 0.07037800
v 0.02301300 -0.04805600 0.07037800
v 0.02957000 -0.04805600 0.07163100
v 0.02957000 -0.04805600 0.07163100
v 0.03602100 -0.04805600 0.06991500
v 0.03602100 -0.04805600 0.06991500
v 0.04108900 -0.04805600 0.06556900
v 0.04108900 -0.04805600 0.06556900
v 0.04377000 -0.04805600 0.05945600
v 0.04377000 -0.04805600 0.05945600
v 0.04353200 -0.04805600 0.05278400
v 0.04353200 -0.04805600 0.05278400
v 0.04042400 -0.04805600 0.04687700
v 0.04042400 -0.04805600 0.04687700
v 0.03506000 -0.04805600 0.04290300
v 0.03506000 -0.04805600 0.04290300
v 0.02850300 -0.04805600 0.04165000
v 0.02850300 -0.04805600 0.04165000
v 0.02205100 -0.04805600 0.04336600
v 0.02205100 -0.04805600 0.04336600
v 0.01698400 -0.04805600 0.04771100
v 0.01698400 -0.04805600 0.04771100
v 0.01430300 -0.04805600 0.05382500
v 0.01430300 -0.04805600 0.05382500
v 0.01454100 -0.04805600 0.06049700
v 0.01454100 -0.04805600 0.06049700
v 0.01764900 -0.04805600 0.06640400
v 0.01764900 -0.04805600 0.06640400
v 0.01897800 -0.05062500 0.06044500
v 0.02586200 -0.05177300 0.06388100
v 0.03305300 -0.05062500 0.06661600
v 0.02199900 -0.05184600 0.05355500
v 0.02903600 -0.05305600 0.05664000
v 0.03607400 -0.05184600 0.05972600
v 0.02502000 -0.05062500 0.04666500
v 0.03221100 -0.05177300 0.04940000
v 0.03909400 -0.05062500 0.05283600
v 0.02581400 -0.03925600 0.06399000
v 0.02581400 -0.03925600 0.06399000
v 0.02581400 -0.03925600 0.06399000
v 0.02257100 -0.03925600 0.06139400
v 0.02257100 -0.03925600 0.06139400
v 0.02106000 -0.03925600 0.05752500
v 0.02106000 -0.03925600 0.05752500
v 0.02168700 -0.03925600 0.05341800
v 0.02168700 -0.03925600 0.05341800
v 0.02428200 -0.03925600 0.05017500
v 0.02428200 -0.03925600 0.05017500
v 0.02815200 -0.03925600 0.04866400
v 0.02815200 -0.03925600 0.04866400
v 0.03225900 -0.03925600 0.04929100
v 0.03225900 -0.03925600 0.04929100
v 0.03550200 -0.03925600 0.05188600
v 0.03550200 -0.03925600 0.05188600
v 0.03701300 -0.03925600 0.05575600
v 0.03701300 -0.03925600 0.05575600
v 0.03638600 -0.03925600 0.05986300
v 0.03638600 -0.03925600 0.05986300
v 0.03379000 -0.03925600 0.06310600
v 0.03379000 -0.03925600 0.06310600
v 0.02992100 -0.03925600 0.06461700
v 0.02992100 -0.03925600 0.06461700
v 0.03526000 -0.03925600 0.04244500
v 0.03526000 -0.03925600 0.04244500
v 0.03526000 -0.03925600 0.04244500
v 0.02848500 -0.03925600 0.04115000
v 0.02848500 -0.03925600 0.04115000
v 0.02181800 -0.03925600 0.04292400
v 0.02181800 -0.03925600 0.04292400
v 0.01658200 -0.03925600 0.04741400
v 0.01658200 -0.03925600 0.04741400
v 0.01381200 -0.03925600 0.05373100
v 0.01381200 -0.03925600 0.05373100
v 0.01405700 -0.03925600 0.06062500
v 0.01405700 -0.03925600 0.06062500
v 0.01727000 -0.03925600 0.06673000
v 0.01727000 -0.03925600 0.06673000
v 0.02281200 -0.03925600 0.07083600
v 0.02281200 -0.03925600 0.07083600
v 0.02958800 -0.03925600 0.07213100
v 0.02958800 -0.03925600 0.07213100
v 0.03625400 -0.03925600 0.07035700
v 0.03625400 -0.03925600 0.07035700
v 0.04149100 -0.03925600 0.06586700
v 0.04149100 -0.03925600 0.06586700
v 0.04426100 -0.03925600 0.05955000
v 0.04426100 -0.03925600 0.05955000
v 0.04401500 -0.03925600 0.05265600
v 0.04401500 -0.03925600 0.05265600
v 0.04080300 -0.03925600 0.04655100
v 0.04080300 -0.03925600 0.04655100
v 0.03526000 -0.03775600 0.04244500
v 0.03526000 -0.03775600 0.04244500
v 0.03526000 -0.03775600 0.04244500
v 0.04080300 -0.03775600 0.04655100
v 0.04080300 -0.03775600 0.04655100
v 0.04401500 -0.03775600 0.05265600
v 0.04401500 -0.03775600 0.05265600
v 0.04426100 -0.03775600 0.05955000
v 0.04426100 -0.03775600 0.05955000
v 0.04149100 -0.03775600 0.06586700
v 0.04149100 -0.03775600 0.06586700
v 0.03625400 -0.03775600 0.07035700
v 0.03625400 -0.03775600 0.07035700
v 0.02958800 -0.03775600 0.07213100
v 0.02958800 -0.03775600 0.07213100
v 0.02281200 -0.03775600 0.07083600
v 0.02281200 -0.03775600 0.07083600
v 0.01727000 -0.03775600 0.06673000
v 0.01727000 -0.03775600 0.06673000
v 0.01405700 -0.03775600 0.06062500
v 0.01405700 -0.03775600 0.06062500
v 0.01381200 -0.03775600 0.05373100
v 0.01381200 -0.03775600 0.05373100
v 0.01658200 -0.03775600 0.04741400
v 0.01658200 -0.03775600 0.04741400
v 0.02181800 -0.03775600 0.04292400
v 0.02181800 -0.03775600 0.04292400
v 0.02848500 -0.03775600 0.04115000
v 0.02848500 -0.03775600 0.04115000
vn 0.00000000 100.00000000 -0.00000000
vn -40.15456800 0.00000000 91.58389900
vn -40.15456800 0.00000000 91.58389900
vn 0.00000000 100.00000000 -0.00000000
vn 3.55874900 0.00000000 99.93665600
vn 0.00000000 100.00000000 -0.00000000
vn 46.56721200 -0.00000000 88.49573300
vn 0.00000000 100.00000000 -0.00000000
vn 80.35246800 -0.00000000 59.52714400
vn 98.22293200 -0.00000000 18.76847500
vn 0.00000000 100.00000000 -0.00000000
vn 0.00000000 100.00000000 -0.00000000
vn 96.63914000 -0.00000000 -25.70752200
vn 0.00000000 100.00000000 -0.00000000
vn 75.91478100 -0.00000000 -65.09182800
vn 0.00000000 100.00000000 -0.00000000
vn 40.15456800 -0.00000000 -91.58389900
vn -3.55874900 -0.00000000 -99.93665600
vn 0.00000000 100.00000000 -0.00000000
vn -46.56721200 0.00000000 -88.49573300
vn 0.00000000 100.00000000 -0.00000000
vn 0.00000000 100.00000000 -0.00000000
vn -80.35246800 0.00000000 -59.52714400
vn -98.22293200 0.00000000 -18.76847500
vn 0.00000000 100.00000000 -0.00000000
vn -96.63914000 0.00000000 25.70752200
vn 0.00000000 100.00000000 -0.00000000
vn 0.00000000 100.00000000 -0.00000000
vn -75.91478100 0.00000000 65.09182800
vn 0.00000000 100.00000000 -0.00000000
vn -40.15456800 0.00000000 91.58389900
vn -40.15456800 0.00000000 91.58389900
vn 0.00000000 100.00000000 -0.00000000
vn -80.56682600 0.00000000 59.23669900
vn -99.39126800 0.00000000 11.01707300
vn 0.00000000 100.00000000 -0.00000000
vn 0.00000000 100.00000000 -0.00000000
vn -91.58389900 0.00000000 -40.15456800
vn -59.23669900 0.00000000 -80.56682600
vn 0.00000000 100.00000000 -0.00000000
vn 0.00000000 100.00000000 -0.00000000
vn -11.01707300 0.00000000 -99.39126800
vn 40.15456800 -0.00000000 -91.58389900
vn 0.00000000 100.00000000 -0.00000000
vn 0.00000000 100.00000000 -0.00000000
vn 80.56682600 -0.00000000 -59.23669900
vn 99.39126800 -0.00000000 -11.01707300
vn 0.00000000 100.00000000 -0.00000000
vn 0.00000000 100.00000000 -0.00000000
vn 91.58389900 -0.00000000 40.15456800
vn 59.23669900 -0.00000000 80.56682600
vn 0.00000000 100.00000000 -0.00000000
vn 0.00000000 100.00000000 -0.00000000
vn 11.01707300 -0.00000000 99.39126800
vn -40.15456800 0.00000000 91.58389900
vn -24.09274100 -80.00000000 54.95034000
vn -40.15456800 0.00000000 91.58389900
vn 3.55874900 0.00000000 99.93665600
vn 2.13524900 -80.00000000 59.96199400
vn 27.94032700 -80.00000000 53.09744000
vn 46.56721200 -0.00000000 88.49573300
vn 48.21148100 -80.00000000 35.71628700
vn 80.35246800 -0.00000000 59.52714400
vn 98.22293200 -0.00000000 18.76847500
vn 58.93375900 -80.00000000 11.26108500
vn 57.98348400 -80.00000000 -15.42451300
vn 96.63914000 -0.00000000 -25.70752200
vn 45.54886800 -80.00000000 -39.05509700
vn 75.91478100 -0.00000000 -65.09182800
vn 40.15456800 -0.00000000 -91.58389900
vn 24.09274100 -80.00000000 -54.95034000
vn -2.13524900 -80.00000000 -59.96199400
vn -3.55874900 -0.00000000 -99.93665600
vn -27.94032700 -80.00000000 -53.09744000
vn -46.56721200 0.00000000 -88.49573300
vn -80.35246800 0.00000000 -59.52714400
vn -48.21148100 -80.00000000 -35.71628700
vn -98.22293200 0.00000000 -18.76847500
vn -58.93375900 -80.00000000 -11.26108500
vn -96.63914000 0.00000000 25.70752200
vn -57.98348400 -80.00000000 15.42451300
vn -75.91478100 0.00000000 65.09182800
vn -45.54886800 -80.00000000 39.05509700
vn -40.23220600 -90.27618800 15.21773400
vn -12.69798900 -94.86833000 28.96137200
vn 16.06553000 -90.27618800 39.90123500
vn -28.14886800 -95.15945800 -12.34175000
vn -0.00000000 -100.00000000 0.00000000
vn 28.14886800 -95.15945800 12.34175000
vn -16.06553000 -90.27618800 -39.90123500
vn 12.69798900 -94.86833000 -28.96137200
vn 40.23220600 -90.27618800 -15.21773400
vn -40.15456800 0.00000000 91.58389900
vn -40.15456800 0.00000000 91.58389900
vn -0.00000000 -100.00000000 0.00000000
vn -80.56682600 0.00000000 59.23669900
vn -0.00000000 -100.00000000 0.00000000
vn -0.00000000 -100.00000000 0.00000000
vn -99.39126800 0.00000000 11.01707300
vn -91.58389900 0.00000000 -40.15456800
vn -0.00000000 -100.00000000 0.00000000
vn -59.23669900 0.00000000 -80.56682600
vn -0.00000000 -100.00000000 0.00000000
vn -11.01707300 0.00000000 -99.39126800
vn -0.00000000 -100.00000000 0.00000000
vn -0.00000000 -100.00000000 0.00000000
vn 40.15456800 -0.00000000 -91.58389900
vn -0.00000000 -100.00000000 0.00000000
vn 80.56682600 -0.00000000 -59.23669900
vn 99.39126800 -0.00000000 -11.01707300
vn -0.00000000 -100.00000000 0.00000000
vn 91.58389900 -0.00000000 40.15456800
vn -0.00000000 -100.00000000 0.00000000
vn -0.00000000 -100.00000000 0.00000000
vn 59.23669900 -0.00000000 80.56682600
vn 11.01707300 -0.00000000 99.39126800
vn -0.00000000 -100.00000000 0.00000000
vn 40.15456800 -0.00000000 -91.58389900
vn 40.15456800 -0.00000000 -91.58389900
vn -0.00000000 -100.00000000 0.00000000
vn -0.00000000 -100.00000000 0.00000000
vn -3.55874900 -0.00000000 -99.93665600
vn -46.56721200 0.00000000 -88.49573300
vn -0.00000000 -100.00000000 0.00000000
vn -0.00000000 -100.00000000 0.00000000
vn -80.35246800 0.00000000 -59.52714400
vn -98.22293200 0.00000000 -18.76847500
vn -0.00000000 -100.00000000 0.00000000
vn -0.00000000 -100.00000000 0.00000000
vn -96.63914000 0.00000000 25.70752200
vn -75.91478100 0.00000000 65.09182800
vn -0.00000000 -100.00000000 0.00000000
vn -0.00000000 -100.00000000 0.00000000
vn -40.15456800 0.00000000 91.58389900
vn 3.55874900 0.00000000 99.93665600
vn -0.00000000 -100.00000000 0.00000000
vn -0.00000000 -100.00000000 0.00000000
vn 46.56721200 -0.00000000 88.49573300
vn 80.35246800 -0.00000000 59.52714400
vn -0.00000000 -100.00000000 0.00000000
vn -0.00000000 -100.00000000 0.00000000
vn 98.22293200 -0.00000000 18.76847500
vn 96.63914000 -0.00000000 -25.70752200
vn -0.00000000 -100.00000000 0.00000000
vn -0.00000000 -100.00000000 0.00000000
vn 75.91478100 -0.00000000 -65.09182800
vn 40.15456800 -0.00000000 -91.58389900
vn 40.15456800 -0.00000000 -91.58389900
vn 0.00000000 100.00000000 -0.00000000
vn 75.91478100 -0.00000000 -65.09182800
vn 0.00000000 100.00000000 -0.00000000
vn 96.63914000 -0.00000000 -25.70752200
vn 0.00000000 100.00000000 -0.00000000
vn 0.00000000 100.00000000 -0.00000000
vn 98.22293200 -0.00000000 18.76847500
vn 0.00000000 100.00000000 -0.00000000
vn 80.35246800 -0.00000000 59.52714400
vn 46.56721200 -0.00000000 88.49573300
vn 0.00000000 100.00000000 -0.00000000
vn 3.55874900 0.00000000 99.93665600
vn 0.00000000 100.00000000 -0.00000000
vn 0.00000000 100.00000000 -0.00000000
vn -40.15456800 0.00000000 91.58389900
vn -75.91478100 0.00000000 65.09182800
vn 0.00000000 100.00000000 -0.00000000
vn -96.63914000 0.00000000 25.70752200
vn 0.00000000 100.00000000 -0.00000000
vn 0.00000000 100.00000000 -0.00000000
vn -98.22293200 0.00000000 -18.76847500
vn -80.35246800 0.00000000 -59.52714400
vn 0.00000000 100.00000000 -0.00000000
vn -46.56721200 0.00000000 -88.49573300
vn 0.00000000 100.00000000 -0.00000000
vn -3.55874900 -0.00000000 -99.93665600
vn 0.00000000 100.00000000 -0.00000000
vt 0.00000000 1.50000000
vt -0.00000000 4.71238900
vt -0.00000000 -4.71238900
vt -0.65082600 1.35145300
vt 0.00000000 -4.03919100
vt -1.17274700 0.93523500
vt 0.00000000 -3.36599200
vt -1.46239200 0.33378100
vt -0.00000000 -2.69279400
vt -0.00000000 -2.01959500
vt -1.46239200 -0.33378100
vt -1.17274700 -0.93523500
vt -0.00000000 -1.34639700
vt -0.65082600 -1.35145300
vt 0.00000000 -0.67319800
vt 0.00000000 -1.50000000
vt 0.00000000 0.00000000
vt -0.00000000 0.67319800
vt 0.65082600 -1.35145300
vt -0.00000000 1.34639700
vt 1.17274700 -0.93523500
vt 1.46239200 -0.33378100
vt 0.00000000 2.01959500
vt 0.00000000 2.69279400
vt 1.46239200 0.33378100
vt 0.00000000 3.36599200
vt 1.17274700 0.93523500
vt 0.65082600 1.35145300
vt -0.00000000 4.03919100
vt 0.00000000 0.80252900
vt 0.38000000 -2.52122000
vt 0.38000000 2.52122000
vt 0.40126500 0.69501100
vt 0.38000000 2.10101700
vt 0.38000000 1.68081400
vt 0.69501100 0.40126500
vt 0.80252900 -0.00000000
vt 0.38000000 1.26061000
vt 0.38000000 0.84040700
vt 0.69501100 -0.40126500
vt 0.40126500 -0.69501100
vt 0.38000000 0.42020300
vt 0.38000000 -0.00000000
vt -0.00000000 -0.80252900
vt -0.40126500 -0.69501100
vt 0.38000000 -0.42020300
vt 0.38000000 -0.84040700
vt -0.69501100 -0.40126500
vt -0.80252900 0.00000000
vt 0.38000000 -1.26061000
vt 0.38000000 -1.68081400
vt -0.69501100 0.40126500
vt -0.40126500 0.69501100
vt 0.38000000 -2.10101700
vt 0.50000000 4.71238900
vt 0.00000000 2.31823800
vt 0.50000000 -4.71238900
vt 0.50000000 -4.03919100
vt -0.65841100 2.44136900
vt -1.22067500 2.83347200
vt 0.50000000 -3.36599200
vt -1.56206700 3.51357400
vt 0.50000000 -2.69279400
vt 0.50000000 -2.01959500
vt -1.56206700 4.34040700
vt -1.22067500 5.02051000
vt 0.50000000 -1.34639700
vt -0.65841100 5.41261300
vt 0.50000000 -0.67319800
vt 0.50000000 0.00000000
vt 0.00000000 5.53574400
vt 0.65841100 5.41261300
vt 0.50000000 0.67319800
vt 1.22067500 5.02051000
vt 0.50000000 1.34639700
vt 0.50000000 2.01959500
vt 1.56206700 4.34040700
vt 0.50000000 2.69279400
vt 1.56206700 3.51357400
vt 0.50000000 3.36599200
vt 1.22067500 2.83347200
vt 0.50000000 4.03919100
vt 0.65841100 2.44136900
vt 0.78103300 3.12261400
vt -0.00000000 3.12261400
vt -0.78103300 3.12261400
vt 0.78103300 3.92699100
vt -0.00000000 3.92699100
vt -0.78103300 3.92699100
vt 0.78103300 4.73136700
vt -0.00000000 4.73136700
vt -0.78103300 4.73136700
vt -0.00000000 -2.52122000
vt -0.00000000 2.52122000
vt -0.00000000 0.80252900
vt -0.00000000 2.10101700
vt -0.40126500 0.69501100
vt -0.69501100 0.40126500
vt 0.00000000 1.68081400
vt -0.00000000 1.26061000
vt -0.80252900 -0.00000000
vt -0.00000000 0.84040700
vt -0.69501100 -0.40126500
vt 0.00000000 0.42020300
vt -0.40126500 -0.69501100
vt 0.00000000 -0.80252900
vt 0.00000000 -0.00000000
vt 0.40126500 -0.69501100
vt 0.00000000 -0.42020300
vt -0.00000000 -0.84040700
vt 0.69501100 -0.40126500
vt 0.00000000 -1.26061000
vt 0.80252900 0.00000000
vt 0.69501100 0.40126500
vt 0.00000000 -1.68081400
vt -0.00000000 -2.10101700
vt 0.40126500 0.69501100
vt 0.15000000 -4.86946900
vt 0.15000000 4.86946900
vt -0.00000000 -1.55000000
vt -0.67252000 -1.39650200
vt 0.15000000 -4.17383000
vt 0.15000000 -3.47819200
vt -1.21183900 -0.96640900
vt -1.51113800 -0.34490700
vt 0.15000000 -2.78255300
vt 0.15000000 -2.08691500
vt -1.51113800 0.34490700
vt -1.21183900 0.96640900
vt 0.15000000 -1.39127700
vt 0.15000000 -0.69563800
vt -0.67252000 1.39650200
vt 0.00000000 1.55000000
vt 0.15000000 0.00000000
vt 0.15000000 0.69563800
vt 0.67252000 1.39650200
vt 1.21183900 0.96640900
vt 0.15000000 1.39127700
vt 0.15000000 2.08691500
vt 1.51113800 0.34490700
vt 1.51113800 -0.34490700
vt 0.15000000 2.78255300
vt 0.15000000 3.47819200
vt 1.21183900 -0.96640900
vt 0.67252000 -1.39650200
vt 0.15000000 4.17383000
vt -0.00000000 -4.86946900
vt -0.00000000 4.86946900
vt 0.00000000 -1.55000000
vt -0.00000000 4.17383000
vt -0.67252000 -1.39650200
vt -0.00000000 3.47819200
vt -1.21183900 -0.96640900
vt -1.51113800 -0.34490700
vt -0.00000000 2.78255300
vt -1.51113800 0.34490700
vt 0.00000000 2.08691500
vt -0.00000000 1.39127700
vt -1.21183900 0.96640900
vt 0.00000000 0.69563800
vt -0.67252000 1.39650200
vt -0.00000000 1.55000000
vt 0.00000000 0.00000000
vt 0.00000000 -0.69563800
vt 0.67252000 1.39650200
vt 0.00000000 -1.39127700
vt 1.21183900 0.96640900
vt 1.51113800 0.34490700
vt 0.00000000 -2.08691500
vt -0.00000000 -2.78255300
vt 1.51113800 -0.34490700
vt 0.00000000 -3.47819200
vt 1.21183900 -0.96640900
vt -0.00000000 -4.17383000
vt 0.67252000 -1.39650200
f 28/28/28 1/1/1 30/30/30
f 30/30/30 1/1/1 4/4/4
f 30/30/30 4/4/4 53/53/53
f 53/53/53 4/4/4 6/6/6
f 53/53/53 6/6/6 52/52/52
f 52/52/52 6/6/6 8/8/8
f 52/52/52 8/8/8 49/49/49
f 49/49/49 8/8/8 11/11/11
f 49/49/49 11/11/11 48/48/48
f 48/48/48 11/11/11 12/12/12
f 48/48/48 12/12/12 45/45/45
f 45/45/45 12/12/12 14/14/14
f 45/45/45 14/14/14 44/44/44
f 44/44/44 14/14/14 16/16/16
f 44/44/44 16/16/16 19/19/19
f 44/44/44 19/19/19 41/41/41
f 41/41/41 19/19/19 21/21/21
f 41/41/41 21/21/21 40/40/40
f 40/40/40 21/21/21 22/22/22
f 40/40/40 22/22/22 37/37/37
f 37/37/37 22/22/22 25/25/25
f 37/37/37 25/25/25 36/36/36
f 36/36/36 25/25/25 27/27/27
f 36/36/36 27/27/27 33/33/33
f 33/33/33 27/27/27 28/28/28
f 33/33/33 28/28/28 30/30/30
f 58/58/58 5/5/5 57/57/57
f 57/57/57 5/5/5 3/3/3
f 55/55/55 2/2/2 82/82/82
f 82/82/82 2/2/2 29/29/29
f 82/82/82 29/29/29 80/80/80
f 80/80/80 29/29/29 26/26/26
f 80/80/80 26/26/26 78/78/78
f 78/78/78 26/26/26 24/24/24
f 78/78/78 24/24/24 76/76/76
f 76/76/76 24/24/24 23/23/23
f 76/76/76 23/23/23 75/75/75
f 75/75/75 23/23/23 20/20/20
f 75/75/75 20/20/20 73/73/73
f 73/73/73 20/20/20 18/18/18
f 73/73/73 18/18/18 70/70/70
f 70/70/70 18/18/18 17/17/17
f 70/70/70 17/17/17 69/69/69
f 69/69/69 17/17/17 15/15/15
f 69/69/69 15/15/15 67/67/67
f 67/67/67 15/15/15 13/13/13
f 67/67/67 13/13/13 64/64/64
f 64/64/64 13/13/13 10/10/10
f 64/64/64 10/10/10 63/63/63
f 63/63/63 10/10/10 9/9/9
f 63/63/63 9/9/9 61/61/61
f 61/61/61 9/9/9 7/7/7
f 61/61/61 7/7/7 58/58/58
f 58/58/58 7/7/7 5/5/5
f 59/59/59 56/56/56 85/85/85
f 85/85/85 56/56/56 83/83/83
f 85/85/85 83/83/83 84/84/84
f 84/84/84 83/83/83 81/81/81
f 84/84/84 81/81/81 79/79/79
f 84/84/84 79/79/79 87/87/87
f 87/87/87 79/79/79 77/77/77
f 87/87/87 77/77/77 90/90/90
f 90/90/90 77/77/77 74/74/74
f 90/90/90 74/74/74 72/72/72
f 90/90/90 72/72/72 91/91/91
f 91/91/91 72/72/72 71/71/71
f 91/91/91 71/71/71 68/68/68
f 91/91/91 68/68/68 92/92/92
f 92/92/92 68/68/68 66/66/66
f 92/92/92 66/66/66 65/65/65
f 92/92/92 65/65/65 89/89/89
f 89/89/89 65/65/65 62/62/62
f 89/89/89 62/62/62 86/86/86
f 86/86/86 62/62/62 60/60/60
f 86/86/86 60/60/60 59/59/59
f 86/86/86 59/59/59 85/85/85
f 89/89/89 86/86/86 85/85/85
f 85/85/85 84/84/84 88/88/88
f 88/88/88 84/84/84 87/87/87
f 88/88/88 87/87/87 91/91/91
f 91/91/91 87/87/87 90/90/90
f 92/92/92 89/89/89 88/88/88
f 88/88/88 89/89/89 85/85/85
f 92/92/92 88/88/88 91/91/91
f 54/54/54 116/116/116 31/31/31
f 31/31/31 116/116/116 93/93/93
f 32/32/32 94/94/94 34/34/34
f 34/34/34 94/94/94 96/96/96
f 34/34/34 96/96/96 35/35/35
f 35/35/35 96/96/96 99/99/99
f 35/35/35 99/99/99 38/38/38
f 38/38/38 99/99/99 100/100/100
f 38/38/38 100/100/100 39/39/39
f 39/39/39 100/100/100 102/102/102
f 39/39/39 102/102/102 42/42/42
f 42/42/42 102/102/102 104/104/104
f 42/42/42 104/104/104 43/43/43
f 43/43/43 104/104/104 107/107/107
f 43/43/43 107/107/107 46/46/46
f 46/46/46 107/107/107 109/109/109
f 46/46/46 109/109/109 47/47/47
f 47/47/47 109/109/109 110/110/110
f 47/47/47 110/110/110 50/50/50
f 50/50/50 110/110/110 112/112/112
f 50/50/50 112/112/112 51/51/51
f 51/51/51 112/112/112 115/115/115
f 51/51/51 115/115/115 54/54/54
f 54/54/54 115/115/115 116/116/116
f 122/122/122 174/174/174 118/118/118
f 118/118/118 174/174/174 147/147/147
f 119/119/119 148/148/148 146/146/146
f 146/146/146 148/148/148 150/150/150
f 146/146/146 150/150/150 143/143/143
f 143/143/143 150/150/150 152/152/152
f 143/143/143 152/152/152 142/142/142
f 142/142/142 152/152/152 155/155/155
f 142/142/142 155/155/155 139/139/139
f 139/139/139 155/155/155 157/157/157
f 139/139/139 157/157/157 138/138/138
f 138/138/138 157/157/157 158/158/158
f 138/138/138 158/158/158 135/135/135
f 135/135/135 158/158/158 160/160/160
f 135/135/135 160/160/160 134/134/134
f 134/134/134 160/160/160 163/163/163
f 134/134/134 163/163/163 131/131/131
f 131/131/131 163/163/163 164/164/164
f 131/131/131 164/164/164 130/130/130
f 130/130/130 164/164/164 166/166/166
f 130/130/130 166/166/166 127/127/127
f 127/127/127 166/166/166 169/169/169
f 127/127/127 169/169/169 126/126/126
f 126/126/126 169/169/169 170/170/170
f 126/126/126 170/170/170 123/123/123
f 123/123/123 170/170/170 172/172/172
f 123/123/123 172/172/172 122/122/122
f 122/122/122 172/172/172 174/174/174
f 175/175/175 162/162/162 149/149/149
f 149/149/149 162/162/162 161/161/161
f 149/149/149 161/161/161 151/151/151
f 151/151/151 161/161/161 159/159/159
f 151/151/151 159/159/159 153/153/153
f 153/153/153 159/159/159 156/156/156
f 153/153/153 156/156/156 154/154/154
f 162/162/162 175/175/175 165/165/165
f 165/165/165 175/175/175 173/173/173
f 165/165/165 173/173/173 167/167/167
f 167/167/167 173/173/173 171/171/171
f 167/167/167 171/171/171 168/168/168
f 121/121/121 120/120/120 106/106/106
f 106/106/106 120/120/120 145/145/145
f 106/106/106 145/145/145 108/108/108
f 108/108/108 145/145/145 144/144/144
f 108/108/108 144/144/144 111/111/111
f 111/111/111 144/144/144 141/141/141
f 111/111/111 141/141/141 113/113/113
f 113/113/113 141/141/141 140/140/140
f 113/113/113 140/140/140 114/114/114
f 114/114/114 140/140/140 137/137/137
f 114/114/114 137/137/137 117/117/117
f 117/117/117 137/137/137 136/136/136
f 117/117/117 136/136/136 95/95/95
f 95/95/95 136/136/136 133/133/133
f 95/95/95 133/133/133 132/132/132
f 95/95/95 132/132/132 97/97/97
f 97/97/97 132/132/132 129/129/129
f 97/97/97 129/129/129 98/98/98
f 98/98/98 129/129/129 128/128/128
f 98/98/98 128/128/128 101/101/101
f 101/101/101 128/128/128 125/125/125
f 101/101/101 125/125/125 103/103/103
f 103/103/103 125/125/125 124/124/124
f 103/103/103 124/124/124 105/105/105
f 105/105/105 124/124/124 121/121/121
f 105/105/105 121/121/121 106/106/106

