mtllib material.mtl
usemtl material_0
v -0.00474500 -0.00022300 0.04074100
v -0.00474500 -0.00022300 0.04074100
v -0.00474500 -0.00022300 0.04074100
v -0.00399800 -0.00256600 0.04074100
v -0.00399800 -0.00256600 0.04074100
v -0.00217900 -0.00422100 0.04074100
v -0.00217900 -0.00422100 0.04074100
v 0.00022300 -0.00474500 0.04074100
v 0.00022300 -0.00474500 0.04074100
v 0.00256600 -0.00399800 0.04074100
v 0.00256600 -0.00399800 0.04074100
v 0.00422100 -0.00217900 0.04074100
v 0.00422100 -0.00217900 0.04074100
v 0.00474500 0.00022300 0.04074100
v 0.00474500 0.00022300 0.04074100
v 0.00399800 0.00256600 0.04074100
v 0.00399800 0.00256600 0.04074100
v 0.00217900 0.00422100 0.04074100
v 0.00217900 0.00422100 0.04074100
v -0.00022300 0.00474500 0.04074100
v -0.00022300 0.00474500 0.04074100
v -0.00256600 0.00399800 0.04074100
v -0.00256600 0.00399800 0.04074100
v -0.00422100 0.00217900 0.04074100
v -0.00422100 0.00217900 0.04074100
v 0.00516800 0.00013400 0.03540000
v 0.00440900 0.00270000 0.03540000
v 0.00246800 0.00454300 0.03540000
v -0.00013400 0.00516800 0.03540000
v -0.00270000 0.00440900 0.03540000
v -0.00454300 0.00246800 0.03540000
v -0.00516800 -0.00013400 0.03540000
v -0.00516800 -0.00013400 0.03540000
v -0.00440900 -0.00270000 0.03540000
v -0.00246800 -0.00454300 0.03540000
v 0.00013400 -0.00516800 0.03540000
v 0.00270000 -0.00440900 0.03540000
v 0.00454300 -0.00246800 0.03540000
v -0.00437400 0.00185300 0.03540000
v -0.00437400 0.00185300 0.03540000
v -0.00286100 0.00379200 0.03540000
v -0.00058200 0.00471400 0.03540000
v 0.00185300 0.00437400 0.03540000
v 0.00379200 0.00286100 0.03540000
v 0.00471400 0.00058200 0.03540000
v 0.00437400 -0.00185300 0.03540000
v 0.00286100 -0.00379200 0.03540000
v 0.00058200 -0.00471400 0.03540000
v -0.00185300 -0.00437400 0.03540000
v -0.00379200 -0.00286100 0.03540000
v -0.00471400 -0.00058200 0.03540000
v 0.01000000 0.00000000 0.03690000
v 0.01000000 0.00000000 0.03690000
v 0.01000000 0.00000000 0.03690000
v 0.00866000 0.00500000 0.03690000
v 0.00866000 0.00500000 0.03690000
v 0.00500000 0.00866000 0.03690000
v 0.00500000 0.00866000 0.03690000
v -0.00000000 0.01000000 0.03690000
v -0.00000000 0.01000000 0.03690000
v -0.00500000 0.00866000 0.03690000
v -0.00500000 0.00866000 0.03690000
v -0.00866000 0.00500000 0.03690000
v -0.00866000 0.00500000 0.03690000
v -0.01000000 -0.00000000 0.03690000
v -0.01000000 -0.00000000 0.03690000
v -0.00866000 -0.00500000 0.03690000
v -0.00866000 -0.00500000 0.03690000
v -0.00500000 -0.00866000 0.03690000
v -0.00500000 -0.00866000 0.03690000
v 0.00000000 -0.01000000 0.03690000
v 0.00000000 -0.01000000 0.03690000
v 0.00500000 -0.00866000 0.03690000
v 0.00500000 -0.00866000 0.03690000
v 0.00866000 -0.00500000 0.03690000
v 0.00866000 -0.00500000 0.03690000
v 0.00000000 -0.00517000 0.03690000
v 0.00000000 -0.00517000 0.03690000
v -0.00258500 -0.00447700 0.03690000
v -0.00258500 -0.00447700 0.03690000
v -0.00447700 -0.00258500 0.03690000
v -0.00447700 -0.00258500 0.03690000
v -0.00517000 0.00000000 0.03690000
v -0.00517000 0.00000000 0.03690000
v -0.00517000 0.00000000 0.03690000
v -0.00447700 0.00258500 0.03690000
v -0.00447700 0.00258500 0.03690000
v -0.00258500 0.00447700 0.03690000
v -0.00258500 0.00447700 0.03690000
v -0.00000000 0.00517000 0.03690000
v -0.00000000 0.00517000 0.03690000
v 0.00258500 0.00447700 0.03690000
v 0.00258500 0.00447700 0.03690000
v 0.00447700 0.00258500 0.03690000
v 0.00447700 0.00258500 0.03690000
v 0.00517000 0.00000000 0.03690000
v 0.00517000 0.00000000 0.03690000
v 0.00447700 -0.00258500 0.03690000
v 0.00447700 -0.00258500 0.03690000
v 0.00258500 -0.00447700 0.03690000
v 0.00258500 -0.00447700 0.03690000
v 0.01000000 0.00000000 0.03490000
v 0.01000000 0.00000000 0.03490000
v 0.01000000 0.00000000 0.03490000
v 0.00866000 0.00500000 0.03490000
v 0.00866000 0.00500000 0.03490000
v 0.00500000 0.00866000 0.03490000
v 0.00500000 0.00866000 0.03490000
v -0.00000000 0.01000000 0.03490000
v -0.00000000 0.01000000 0.03490000
v -0.00500000 0.00866000 0.03490000
v -0.00500000 0.00866000 0.03490000
v -0.00866000 0.00500000 0.03490000
v -0.00866000 0.00500000 0.03490000
v -0.01000000 -0.00000000 0.03490000
v -0.01000000 -0.00000000 0.03490000
v -0.00866000 -0.00500000 0.03490000
v -0.00866000 -0.00500000 0.03490000
v -0.00500000 -0.00866000 0.03490000
v -0.00500000 -0.00866000 0.03490000
v 0.00000000 -0.01000000 0.03490000
v 0.00000000 -0.01000000 0.03490000
v 0.00500000 -0.00866000 0.03490000
v 0.00500000 -0.00866000 0.03490000
v 0.00866000 -0.00500000 0.03490000
v 0.00866000 -0.00500000 0.03490000
v 0.00000000 -0.00600000 0.03490000
v -0.00300000 -0.00519600 0.03490000
v -0.00519600 -0.00300000 0.03490000
v -0.00600000 -0.00000000 0.03490000
v -0.00519600 0.00300000 0.03490000
v -0.00300000 0.00519600 0.03490000
v -0.00000000 0.00600000 0.03490000
v 0.00300000 0.00519600 0.03490000
v 0.00519600 0.00300000 0.03490000
v 0.00600000 0.00000000 0.03490000
v 0.00519600 -0.00300000 0.03490000
v 0.00300000 -0.00519600 0.03490000
vn 0.00000000 0.00000000 100.00000000
vn -99.88961600 -4.69730600 0.00000000
vn -99.88961600 -4.69730600 0.00000000
vn 0.00000000 0.00000000 100.00000000
vn -84.15829200 -54.01279500 0.00000000
vn -45.87682100 -88.85559800 0.00000000
vn 0.00000000 0.00000000 100.00000000
vn 0.00000000 0.00000000 100.00000000
vn 4.69730600 -99.88961600 0.00000000
vn 0.00000000 0.00000000 100.00000000
vn 54.01279500 -84.15829200 0.00000000
vn 88.85559800 -45.87682100 0.00000000
vn 0.00000000 0.00000000 100.00000000
vn 99.88961600 4.69730600 -0.00000000
vn 0.00000000 0.00000000 100.00000000
vn 0.00000000 0.00000000 100.00000000
vn 84.15829200 54.01279500 -0.00000000
vn 0.00000000 0.00000000 100.00000000
vn 45.87682100 88.85559800 -0.00000000
vn 0.00000000 0.00000000 100.00000000
vn -4.69730600 99.88961600 -0.00000000
vn -54.01279500 84.15829200 -0.00000000
vn 0.00000000 0.00000000 100.00000000
vn -88.85559800 45.87682100 -0.00000000
vn 0.00000000 0.00000000 100.00000000
vn -99.96654400 -2.58651200 0.00000000
vn -85.28031100 -52.22325700 0.00000000
vn -47.74328700 -87.86682300 0.00000000
vn 2.58651200 -99.96654400 0.00000000
vn 52.22325700 -85.28031100 0.00000000
vn 87.86682300 -47.74328700 -0.00000000
vn 99.96654400 2.58651200 -0.00000000
vn 99.96654400 2.58651200 -0.00000000
vn 85.28031100 52.22325700 -0.00000000
vn 47.74328700 87.86682300 -0.00000000
vn -2.58651200 99.96654400 -0.00000000
vn -52.22325700 85.28031100 -0.00000000
vn -87.86682300 47.74328700 0.00000000
vn -92.07717100 39.01018500 -0.00000000
vn -92.07717100 39.01018500 -0.00000000
vn -60.23607700 79.82239700 -0.00000000
vn -12.25477500 99.24626200 -0.00000000
vn 39.01018500 92.07717100 -0.00000000
vn 79.82239700 60.23607700 -0.00000000
vn 99.24626200 12.25477500 -0.00000000
vn 92.07717100 -39.01018500 0.00000000
vn 60.23607700 -79.82239700 0.00000000
vn 12.25477500 -99.24626200 0.00000000
vn -39.01018500 -92.07717100 0.00000000
vn -79.82239700 -60.23607700 0.00000000
vn -99.24626200 -12.25477500 0.00000000
vn 0.00000000 0.00000000 100.00000000
vn 100.00000000 -0.00000000 -0.00000000
vn 100.00000000 -0.00000000 -0.00000000
vn 86.60253900 50.00000300 -0.00000000
vn 0.00000000 0.00000000 100.00000000
vn 49.99999700 86.60254200 -0.00000000
vn 0.00000000 0.00000000 100.00000000
vn 0.00000000 0.00000000 100.00000000
vn -0.00000300 100.00000000 -0.00000000
vn 0.00000000 0.00000000 100.00000000
vn -50.00000300 86.60253900 -0.00000000
vn 0.00000000 0.00000000 100.00000000
vn -86.60254200 49.99999700 0.00000000
vn -100.00000000 -0.00000300 0.00000000
vn 0.00000000 0.00000000 100.00000000
vn -86.60253900 -50.00000300 0.00000000
vn 0.00000000 0.00000000 100.00000000
vn 0.00000000 0.00000000 100.00000000
vn -49.99999700 -86.60254200 0.00000000
vn 0.00000300 -100.00000000 0.00000000
vn 0.00000000 0.00000000 100.00000000
vn 0.00000000 0.00000000 100.00000000
vn 50.00000300 -86.60253900 0.00000000
vn 86.60254200 -49.99999700 -0.00000000
vn 0.00000000 0.00000000 100.00000000
vn 0.00000000 0.00000000 100.00000000
vn -0.00000000 100.00000000 -0.00000000
vn 50.00000000 86.60254000 -0.00000000
vn 0.00000000 0.00000000 100.00000000
vn 86.60254000 50.00000000 -0.00000000
vn 0.00000000 0.00000000 100.00000000
vn 100.00000000 0.00000000 -0.00000000
vn 100.00000000 0.00000000 -0.00000000
vn 0.00000000 0.00000000 100.00000000
vn 0.00000000 0.00000000 100.00000000
vn 86.60254000 -50.00000000 -0.00000000
vn 50.00000000 -86.60254000 0.00000000
vn 0.00000000 0.00000000 100.00000000
vn 0.00000000 0.00000000 100.00000000
vn -0.00000000 -100.00000000 0.00000000
vn -50.00000000 -86.60254000 0.00000000
vn 0.00000000 0.00000000 100.00000000
vn -86.60254000 -50.00000000 0.00000000
vn 0.00000000 0.00000000 100.00000000
vn 0.00000000 0.00000000 100.00000000
vn -100.00000000 -0.00000000 0.00000000
vn 0.00000000 0.00000000 100.00000000
vn -86.60254000 50.00000000 0.00000000
vn -50.00000000 86.60254000 -0.00000000
vn 0.00000000 0.00000000 100.00000000
vn 100.00000000 -0.00000000 -0.00000000
vn 100.00000000 -0.00000000 -0.00000000
vn -0.00000000 -0.00000000 -100.00000000
vn 86.60253900 50.00000300 -0.00000000
vn -0.00000000 -0.00000000 -100.00000000
vn -0.00000000 -0.00000000 -100.00000000
vn 49.99999700 86.60254200 -0.00000000
vn -0.00000300 100.00000000 -0.00000000
vn -0.00000000 -0.00000000 -100.00000000
vn -0.00000000 -0.00000000 -100.00000000
vn -50.00000300 86.60253900 -0.00000000
vn -86.60254200 49.99999700 0.00000000
vn -0.00000000 -0.00000000 -100.00000000
vn -0.00000000 -0.00000000 -100.00000000
vn -100.00000000 -0.00000300 0.00000000
vn -86.60253900 -50.00000300 0.00000000
vn -0.00000000 -0.00000000 -100.00000000
vn -0.00000000 -0.00000000 -100.00000000
vn -49.99999700 -86.60254200 0.00000000
vn 0.00000300 -100.00000000 0.00000000
vn -0.00000000 -0.00000000 -100.00000000
vn -0.00000000 -0.00000000 -100.00000000
vn 50.00000300 -86.60253900 0.00000000
vn 86.60254200 -49.99999700 -0.00000000
vn -0.00000000 -0.00000000 -100.00000000
vn -0.00000000 -0.00000000 -100.00000000
vn -0.00000000 -0.00000000 -100.00000000
vn -0.00000000 -0.00000000 -100.00000000
vn -0.00000000 -0.00000000 -100.00000000
vn -0.00000000 -0.00000000 -100.00000000
vn -0.00000000 -0.00000000 -100.00000000
vn -0.00000000 -0.00000000 -100.00000000
vn -0.00000000 -0.00000000 -100.00000000
vn -0.00000000 -0.00000000 -100.00000000
vn -0.00000000 -0.00000000 -100.00000000
vn -0.00000000 -0.00000000 -100.00000000
vn -0.00000000 -0.00000000 -100.00000000
vt -0.47500000 -0.00000000
vt 0.00000000 1.49225700
vt 0.00000000 -1.49225700
vt -0.41136200 -0.23750000
vt 0.00000000 -1.24354700
vt 0.00000000 -0.99483800
vt -0.23750000 -0.41136200
vt 0.00000000 -0.47500000
vt 0.00000000 -0.74612800
vt 0.23750000 -0.41136200
vt 0.00000000 -0.49741900
vt 0.00000000 -0.24870900
vt 0.41136200 -0.23750000
vt -0.00000000 0.00000000
vt 0.47500000 0.00000000
vt 0.41136200 0.23750000
vt -0.00000000 0.24870900
vt 0.23750000 0.41136200
vt -0.00000000 0.49741900
vt -0.00000000 0.47500000
vt -0.00000000 0.74612800
vt -0.00000000 0.99483800
vt -0.23750000 0.41136200
vt -0.00000000 1.24354700
vt -0.41136200 0.23750000
vt -0.00000000 -0.01337300
vt -0.00000000 -0.28406600
vt -0.00000000 -0.55475800
vt -0.00000000 -0.82545000
vt -0.00000000 -1.09614200
vt 0.00000000 -1.36683500
vt 0.00000000 -1.63752700
vt 0.00000000 1.61078000
vt 0.00000000 1.34008800
vt 0.00000000 1.06939600
vt 0.00000000 0.79870300
vt 0.00000000 0.52801100
vt -0.00000000 0.25731900
vt 0.53409400 -1.70492900
vt 0.53409400 1.27958400
vt 0.53409400 1.03087400
vt 0.53409400 0.78216500
vt 0.53409400 0.53345500
vt 0.53409400 0.28474600
vt 0.53409400 0.03603600
vt 0.53409400 -0.21267300
vt 0.53409400 -0.46138200
vt 0.53409400 -0.71009200
vt 0.53409400 -0.95880100
vt 0.53409400 -1.20751100
vt 0.53409400 -1.45622000
vt -1.00000000 -0.00000000
vt -0.00000000 -3.14159300
vt -0.00000000 3.14159300
vt -0.00000000 -2.61799400
vt -0.86602500 -0.50000000
vt -0.00000000 -2.09439500
vt -0.50000000 -0.86602500
vt 0.00000000 -1.00000000
vt -0.00000000 -1.57079600
vt 0.50000000 -0.86602500
vt -0.00000000 -1.04719800
vt 0.86602500 -0.50000000
vt 0.00000000 -0.52359900
vt 0.00000000 0.00000000
vt 1.00000000 0.00000000
vt 0.00000000 0.52359900
vt 0.86602500 0.50000000
vt 0.50000000 0.86602500
vt 0.00000000 1.04719800
vt 0.00000000 1.57079600
vt -0.00000000 1.00000000
vt -0.50000000 0.86602500
vt 0.00000000 2.09439500
vt -0.00000000 2.61799400
vt -0.86602500 0.50000000
vt -0.00000000 0.51698400
vt -0.15000000 0.81207700
vt -0.15000000 1.08276900
vt 0.25849200 0.44772100
vt -0.15000000 1.35346100
vt 0.44772100 0.25849200
vt -0.15000000 1.62415400
vt -0.15000000 -1.62415400
vt 0.51698400 -0.00000000
vt 0.44772100 -0.25849200
vt -0.15000000 -1.35346100
vt -0.15000000 -1.08276900
vt 0.25849200 -0.44772100
vt -0.00000000 -0.51698400
vt -0.15000000 -0.81207700
vt -0.15000000 -0.54138500
vt -0.25849200 -0.44772100
vt -0.15000000 -0.27069200
vt -0.44772100 -0.25849200
vt -0.51698400 0.00000000
vt -0.15000000 -0.00000000
vt -0.44772100 0.25849200
vt -0.15000000 0.27069200
vt -0.15000000 0.54138500
vt -0.25849200 0.44772100
vt 0.20000000 -3.14159300
vt 0.20000000 3.14159300
vt 1.00000000 -0.00000000
vt 0.20000000 -2.61799400
vt 0.86602500 -0.50000000
vt 0.50000000 -0.86602500
vt 0.20000000 -2.09439500
vt 0.20000000 -1.57079600
vt -0.00000000 -1.00000000
vt -0.50000000 -0.86602500
vt 0.20000000 -1.04719800
vt 0.20000000 -0.52359900
vt -0.86602500 -0.50000000
vt -1.00000000 0.00000000
vt 0.20000000 0.00000000
vt 0.20000000 0.52359900
vt -0.86602500 0.50000000
vt -0.50000000 0.86602500
vt 0.20000000 1.04719800
vt 0.20000000 1.57079600
vt 0.00000000 1.00000000
vt 0.50000000 0.86602500
vt 0.20000000 2.09439500
vt 0.20000000 2.61799400
vt 0.86602500 0.50000000
vt 0.00000000 0.60000000
vt -0.30000000 0.51961500
vt -0.51961500 0.30000000
vt -0.60000000 0.00000000
vt -0.51961500 -0.30000000
vt -0.30000000 -0.51961500
vt -0.00000000 -0.60000000
vt 0.30000000 -0.51961500
vt 0.51961500 -0.30000000
vt 0.60000000 -0.00000000
vt 0.51961500 0.30000000
vt 0.30000000 0.51961500
f 4/4/4 13/13/13 1/1/1
f 1/1/1 13/13/13 15/15/15
f 1/1/1 15/15/15 25/25/25
f 25/25/25 15/15/15 16/16/16
f 25/25/25 16/16/16 23/23/23
f 23/23/23 16/16/16 18/18/18
f 23/23/23 18/18/18 20/20/20
f 13/13/13 4/4/4 10/10/10
f 10/10/10 4/4/4 7/7/7
f 10/10/10 7/7/7 8/8/8
f 56/56/56 95/95/95 52/52/52
f 52/52/52 95/95/95 96/96/96
f 52/52/52 96/96/96 76/76/76
f 76/76/76 96/96/96 98/98/98
f 76/76/76 98/98/98 73/73/73
f 73/73/73 98/98/98 101/101/101
f 73/73/73 101/101/101 72/72/72
f 72/72/72 101/101/101 77/77/77
f 72/72/72 77/77/77 69/69/69
f 69/69/69 77/77/77 80/80/80
f 69/69/69 80/80/80 68/68/68
f 68/68/68 80/80/80 82/82/82
f 68/68/68 82/82/82 66/66/66
f 66/66/66 82/82/82 85/85/85
f 66/66/66 85/85/85 63/63/63
f 63/63/63 85/85/85 86/86/86
f 63/63/63 86/86/86 61/61/61
f 61/61/61 86/86/86 89/89/89
f 61/61/61 89/89/89 59/59/59
f 59/59/59 89/89/89 90/90/90
f 59/59/59 90/90/90 58/58/58
f 58/58/58 90/90/90 93/93/93
f 58/58/58 93/93/93 56/56/56
f 56/56/56 93/93/93 95/95/95
f 125/125/125 103/103/103 54/54/54
f 53/53/53 102/102/102 105/105/105
f 53/53/53 105/105/105 55/55/55
f 55/55/55 105/105/105 57/57/57
f 57/57/57 105/105/105 108/108/108
f 57/57/57 108/108/108 60/60/60
f 60/60/60 108/108/108 109/109/109
f 60/60/60 109/109/109 62/62/62
f 62/62/62 109/109/109 112/112/112
f 62/62/62 112/112/112 64/64/64
f 64/64/64 112/112/112 113/113/113
f 64/64/64 113/113/113 65/65/65
f 65/65/65 113/113/113 116/116/116
f 65/65/65 116/116/116 67/67/67
f 67/67/67 116/116/116 117/117/117
f 67/67/67 117/117/117 70/70/70
f 70/70/70 117/117/117 120/120/120
f 70/70/70 120/120/120 71/71/71
f 71/71/71 120/120/120 121/121/121
f 71/71/71 121/121/121 74/74/74
f 74/74/74 121/121/121 124/124/124
f 74/74/74 124/124/124 75/75/75
f 75/75/75 124/124/124 125/125/125
f 75/75/75 125/125/125 54/54/54
f 126/126/126 136/136/136 104/104/104
f 104/104/104 136/136/136 135/135/135
f 104/104/104 135/135/135 106/106/106
f 106/106/106 135/135/135 134/134/134
f 106/106/106 134/134/134 107/107/107
f 107/107/107 134/134/134 133/133/133
f 107/107/107 133/133/133 110/110/110
f 110/110/110 133/133/133 132/132/132
f 110/110/110 132/132/132 111/111/111
f 111/111/111 132/132/132 131/131/131
f 111/111/111 131/131/131 114/114/114
f 114/114/114 131/131/131 130/130/130
f 114/114/114 130/130/130 115/115/115
f 115/115/115 130/130/130 129/129/129
f 115/115/115 129/129/129 118/118/118
f 118/118/118 129/129/129 128/128/128
f 118/118/118 128/128/128 119/119/119
f 119/119/119 128/128/128 127/127/127
f 119/119/119 127/127/127 122/122/122
f 122/122/122 127/127/127 138/138/138
f 122/122/122 138/138/138 123/123/123
f 123/123/123 138/138/138 137/137/137
f 123/123/123 137/137/137 126/126/126
f 126/126/126 137/137/137 136/136/136
f 51/51/51 3/3/3 39/39/39
f 40/40/40 2/2/2 24/24/24
f 40/40/40 24/24/24 41/41/41
f 41/41/41 24/24/24 22/22/22
f 41/41/41 22/22/22 42/42/42
f 42/42/42 22/22/22 21/21/21
f 42/42/42 21/21/21 43/43/43
f 43/43/43 21/21/21 19/19/19
f 43/43/43 19/19/19 44/44/44
f 44/44/44 19/19/19 17/17/17
f 44/44/44 17/17/17 45/45/45
f 45/45/45 17/17/17 14/14/14
f 45/45/45 14/14/14 46/46/46
f 46/46/46 14/14/14 12/12/12
f 46/46/46 12/12/12 47/47/47
f 47/47/47 12/12/12 11/11/11
f 47/47/47 11/11/11 48/48/48
f 48/48/48 11/11/11 9/9/9
f 48/48/48 9/9/9 49/49/49
f 49/49/49 9/9/9 6/6/6
f 49/49/49 6/6/6 50/50/50
f 50/50/50 6/6/6 5/5/5
f 50/50/50 5/5/5 51/51/51
f 51/51/51 5/5/5 3/3/3
f 100/100/100 36/36/36 78/78/78
f 78/78/78 36/36/36 35/35/35
f 78/78/78 35/35/35 79/79/79
f 79/79/79 35/35/35 34/34/34
f 79/79/79 34/34/34 81/81/81
f 81/81/81 34/34/34 33/33/33
f 81/81/81 33/33/33 83/83/83
f 84/84/84 32/32/32 31/31/31
f 84/84/84 31/31/31 87/87/87
f 87/87/87 31/31/31 30/30/30
f 87/87/87 30/30/30 88/88/88
f 88/88/88 30/30/30 29/29/29
f 88/88/88 29/29/29 91/91/91
f 91/91/91 29/29/29 28/28/28
f 91/91/91 28/28/28 92/92/92
f 92/92/92 28/28/28 27/27/27
f 92/92/92 27/27/27 94/94/94
f 94/94/94 27/27/27 26/26/26
f 94/94/94 26/26/26 97/97/97
f 97/97/97 26/26/26 38/38/38
f 97/97/97 38/38/38 99/99/99
f 99/99/99 38/38/38 37/37/37
f 99/99/99 37/37/37 100/100/100
f 100/100/100 37/37/37 36/36/36

