mtllib material.mtl
usemtl material_0
v -10.87752500 -10.04551400 0.00000000
v -10.87752500 -10.04551400 0.00000000
v -10.87752500 -10.04551400 0.00000000
v -10.87752500 10.25757500 0.00000000
v -10.87752500 10.25757500 0.00000000
v -10.87752500 10.25757500 0.00000000
v -10.87752500 10.25757500 -0.00001000
v -10.87752500 10.25757500 -0.00001000
v -10.87752500 10.25757500 -0.00001000
v -10.87752500 -10.04551400 -0.00001000
v -10.87752500 -10.04551400 -0.00001000
v -10.87752500 -10.04551400 -0.00001000
v 12.02558300 -10.04551400 0.00000000
v 12.02558300 -10.04551400 0.00000000
v 12.02558300 -10.04551400 0.00000000
v 12.02558300 -10.04551400 -0.00001000
v 12.02558300 -10.04551400 -0.00001000
v 12.02558300 -10.04551400 -0.00001000
v 12.02558300 10.25757500 0.00000000
v 12.02558300 10.25757500 0.00000000
v 12.02558300 10.25757500 0.00000000
v 12.02558300 10.25757500 -0.00001000
v 12.02558300 10.25757500 -0.00001000
v 12.02558300 10.25757500 -0.00001000
vn -100.00000000 0.00000000 0.00000000
vn 0.00000000 -100.00000000 0.00000000
vn 0.00000000 -0.00000000 100.00000000
vn -100.00000000 0.00000000 0.00000000
vn 0.00000000 -0.00000000 100.00000000
vn 0.00000000 100.00000000 0.00000000
vn 0.00000000 100.00000000 0.00000000
vn -100.00000000 0.00000000 0.00000000
vn 0.00000000 0.00000000 -100.00000000
vn 0.00000000 0.00000000 -100.00000000
vn -100.00000000 0.00000000 0.00000000
vn 0.00000000 -100.00000000 0.00000000
vn 100.00000000 0.00000000 0.00000000
vn 0.00000000 -100.00000000 0.00000000
vn 0.00000000 -0.00000000 100.00000000
vn 0.00000000 -100.00000000 0.00000000
vn 100.00000000 0.00000000 0.00000000
vn 0.00000000 0.00000000 -100.00000000
vn 100.00000000 0.00000000 0.00000000
vn 0.00000000 100.00000000 0.00000000
vn 0.00000000 -0.00000000 100.00000000
vn 100.00000000 0.00000000 0.00000000
vn 0.00000000 100.00000000 0.00000000
vn 0.00000000 0.00000000 -100.00000000
vt 0.00000000 0.00000000
vt 2290.31085400 0.00000000
vt -1145.15542700 -1015.15447700
vt 2030.30895400 0.00000000
vt -1145.15542700 1015.15447700
vt 0.00000000 0.00000000
vt 0.00000000 0.00100000
vt 2030.30895400 0.00100000
vt 1145.15542700 1015.15447700
vt 1145.15542700 -1015.15447700
vt 0.00000000 0.00100000
vt 2290.31085400 0.00100000
vt 2030.30895400 0.00000000
vt 0.00000000 0.00000000
vt 1145.15542700 -1015.15447700
vt 0.00000000 0.00100000
vt 2030.30895400 0.00100000
vt -1145.15542700 -1015.15447700
vt 0.00000000 0.00000000
vt 2290.31085400 0.00000000
vt 1145.15542700 1015.15447700
vt 0.00000000 0.00100000
vt 2290.31085400 0.00100000
vt -1145.15542700 1015.15447700
f 1/1/1 4/4/4 11/11/11
f 11/11/11 4/4/4 8/8/8
f 14/14/14 2/2/2 16/16/16
f 16/16/16 2/2/2 12/12/12
f 19/19/19 13/13/13 22/22/22
f 22/22/22 13/13/13 17/17/17
f 6/6/6 20/20/20 7/7/7
f 7/7/7 20/20/20 23/23/23
f 21/21/21 5/5/5 15/15/15
f 15/15/15 5/5/5 3/3/3
f 9/9/9 24/24/24 10/10/10
f 10/10/10 24/24/24 18/18/18

